<svg width="511" height="203" viewBox="0 0 511 203" fill="none" xmlns="http://www.w3.org/2000/svg">
<g clip-path="url(#clip0_105_7)">
<path d="M5.70596 12.0156V37.3115H12.0459V12.0156H5.70596Z" fill="white"/>
<path d="M40.2587 20.8692L46.9156 19.2882C46.9156 19.2882 45.9646 11.6994 35.8207 11.6994C23.7748 11.6994 23.1408 21.5016 23.1408 24.6635C23.1408 27.8255 23.7748 37.6277 35.8207 37.6277C39.6247 37.4331 42.1607 35.0981 42.1607 35.0981L42.4777 37.3115H47.5496V23.1861H35.7565V27.8255H41.2097C41.2097 30.6713 39.3077 31.6199 35.8207 31.6199C29.4808 31.6199 30.1148 24.6635 30.1148 24.6635C30.1148 18.972 32.9677 18.0234 35.5037 17.7072C38.9907 17.0748 40.2587 20.8692 40.2587 20.8692Z" fill="white"/>
<path fill-rule="evenodd" clip-rule="evenodd" d="M59.2785 12.3318V37.3115H65.6185V29.4065H69.1055L73.5434 37.3115H81.1514L75.1284 28.1417C75.1284 28.1417 79.2494 26.8769 79.2494 20.2368C79.2494 11.6994 70.3735 12.3318 70.3735 12.3318H59.2785ZM65.6185 23.715V17.8342H70.1488C70.1488 17.8342 72.9094 17.8342 72.9094 20.8692C72.9094 23.715 70.1488 23.715 70.1488 23.715H65.6185Z" fill="white"/>
<path d="M90.6613 12.0156V37.3115H107.779V31.3037H97.3182V27.1931H106.511V21.8178H97.3182V17.8342H107.779V12.0156H90.6613Z" fill="white"/>
<path d="M125.848 12.0156H132.188V30.3551C131.554 37.9439 123.629 38.5763 116.972 36.6791L117.606 30.9875C120.142 31.9361 125.848 32.8847 125.848 29.4065V12.0156Z" fill="white"/>
<path fill-rule="evenodd" clip-rule="evenodd" d="M140.747 36.9953H147.404L149.306 32.2523H157.548L159.45 36.9953H166.107L156.914 12.0156H149.94L140.747 36.9953ZM155.963 26.8769H150.891L153.427 19.6044L155.963 26.8769Z" fill="white"/>
<path d="M463.767 196.36L463.45 198.889C465.352 199.838 465.669 200.154 468.839 200.154C473.911 200.154 475.179 198.257 475.179 195.727C475.179 188.455 465.669 192.249 465.669 187.822C465.669 185.925 466.303 184.977 469.156 184.977C471.375 184.977 472.326 186.242 472.326 187.506L474.545 186.874C474.545 186.874 474.228 182.447 469.156 182.763C465.035 183.08 463.133 184.344 463.133 187.822C463.133 194.146 472.96 191.301 472.96 195.411C472.96 198.257 469.473 197.941 468.839 197.941C466.303 197.941 465.035 197.308 463.767 196.36Z" fill="white"/>
<path d="M5.70596 183.079V199.838H16.1669V197.625H7.92495V183.079H5.70596Z" fill="white"/>
<path d="M33.9187 183.079H36.4547V194.146C36.4547 196.992 38.0397 197.941 40.2587 197.941C43.4287 197.941 44.6967 196.992 44.6967 194.146V183.079H47.2326V194.146C47.2326 196.36 46.2816 200.154 40.2587 200.154C36.7717 200.154 33.9187 198.573 33.9187 194.146V183.079Z" fill="white"/>
<path d="M78.9324 188.139L81.4684 187.822C80.8344 184.66 79.2494 183.079 74.8114 183.079C68.7885 183.079 66.5695 186.558 66.5695 191.933C66.5695 197.625 70.3735 200.154 73.8604 200.154C77.6644 200.154 79.2494 198.889 79.8834 197.941V199.838H81.7854V190.984H74.8114V192.882C76.3964 192.776 79.5664 192.629 79.5664 192.882C79.5664 196.044 78.2984 197.941 74.8114 197.941C70.6905 197.941 69.4225 195.411 69.1055 191.933C69.1055 187.19 71.3245 184.977 74.8114 184.977C77.6644 184.977 78.9324 186.558 78.9324 188.139Z" fill="white"/>
<path fill-rule="evenodd" clip-rule="evenodd" d="M99.2202 199.838H101.756L103.341 195.411H110.632L112.217 199.838H114.753L108.413 183.079H105.56L99.2202 199.838ZM109.681 193.514H103.975L106.828 185.925L109.681 193.514Z" fill="white"/>
<path fill-rule="evenodd" clip-rule="evenodd" d="M135.041 199.838H132.505V183.079H138.845C138.845 183.079 144.551 183.079 144.551 188.139C144.551 193.198 140.43 193.198 140.43 193.198L144.868 199.838H142.015L138.211 193.514H135.041V199.838ZM135.041 185.293V191.301H138.528C138.528 191.301 142.015 191.617 142.015 188.139C142.015 185.293 138.528 185.293 138.528 185.293H135.041Z" fill="white"/>
<path fill-rule="evenodd" clip-rule="evenodd" d="M186.078 199.838H192.101C192.101 199.838 200.025 200.154 200.025 191.617C200.025 183.079 192.101 183.079 192.101 183.079H186.078V199.838ZM188.614 185.293V197.625H192.101C192.101 197.625 197.489 197.941 197.489 191.617C197.489 185.293 192.101 185.293 192.101 185.293H188.614Z" fill="white"/>
<path d="M219.679 183.079V199.838H230.14V197.625H221.898V192.565H229.506V190.352H221.898V185.293H230.14V183.079H219.679Z" fill="white"/>
<path fill-rule="evenodd" clip-rule="evenodd" d="M271.667 183.079V199.838H277.69C277.69 199.838 285.615 200.154 285.615 191.617C285.615 183.079 277.69 183.079 277.69 183.079H271.667ZM274.203 197.625V185.293H277.69C277.69 185.293 283.079 184.977 283.079 191.617C283.079 198.257 277.69 197.625 277.69 197.625H274.203Z" fill="white"/>
<path d="M305.269 199.838H316.047V197.625H307.805V192.565H315.413V190.352H307.805V185.293H316.047V183.079H305.269V199.838Z" fill="white"/>
<path d="M335.066 198.889L335.383 196.36C336.651 197.308 337.919 197.941 340.455 197.941C341.089 197.941 344.576 198.257 344.576 195.411C344.576 191.301 334.749 194.146 334.749 187.822C334.749 184.344 336.651 183.079 340.772 182.763C345.844 182.447 346.161 186.874 346.161 186.874L343.942 187.506C343.942 186.241 342.991 184.977 340.772 184.977C337.919 184.977 337.285 185.925 337.285 187.822C337.285 192.249 346.795 188.455 346.795 195.727C346.795 198.257 345.527 200.154 340.455 200.154C337.285 200.154 336.968 199.838 335.066 198.889Z" fill="white"/>
<path d="M376.91 188.455L379.129 188.139C379.129 188.139 379.763 182.763 372.789 182.763C366.132 182.763 365.181 188.455 365.181 191.617C365.181 195.095 365.815 200.154 372.789 200.154C376.593 200.154 377.861 199.522 379.129 198.573L378.495 196.36C377.544 196.992 376.593 197.941 372.789 197.941C369.936 197.941 367.717 195.727 367.717 191.617C367.717 187.506 369.302 184.977 372.789 184.977C375.959 184.977 376.91 187.19 376.91 188.455Z" fill="white"/>
<path fill-rule="evenodd" clip-rule="evenodd" d="M396.247 199.838H398.783L400.368 195.411H407.659L409.244 199.838H411.78L405.44 183.079H402.587L396.247 199.838ZM403.855 185.925L406.708 193.514H401.002L403.855 185.925Z" fill="white"/>
<path d="M429.532 199.838H432.068V187.19L441.261 199.838H443.48V183.079H441.261V195.945L432.068 183.079H429.532V199.838Z" fill="white"/>
<path fill-rule="evenodd" clip-rule="evenodd" d="M501.49 200.154C507.513 200.154 509.415 196.36 509.415 191.933C509.415 186.874 507.513 182.763 501.49 182.763C495.467 182.763 493.565 186.874 493.565 191.933C493.565 197.941 497.025 200.154 501.49 200.154ZM507.196 191.933C507.035 195.161 504.729 198.033 501.49 197.941C498.335 197.851 496.257 195.077 496.101 191.933C495.936 188.601 498.147 185.387 501.49 185.293C504.913 185.197 507.366 188.522 507.196 191.933Z" fill="white"/>
<path fill-rule="evenodd" clip-rule="evenodd" d="M4.43797 153.673C4.43797 153.673 3.48698 153.673 3.48698 152.724C3.48698 151.776 4.43797 151.776 4.43797 151.776C15.8499 151.776 16.4839 148.93 17.4349 135.333V85.6187C17.4349 71.2245 14.2997 67.7053 4.28785 68.911C4.23243 68.9177 3.80397 68.9314 3.80397 68.9314C3.48699 68.9314 3.16998 68.6153 3.16998 67.9829C3.16998 67.3505 3.80398 67.0343 3.80398 67.0343C13.3139 65.1371 35.1867 59.1293 47.5496 50.2757C48.8176 49.3271 49.7686 49.6433 49.7686 51.5405C49.7686 51.5405 48.5006 58.813 47.5496 78.4174C56.7426 45.5326 109.047 38.2601 114.119 78.4174L127.433 131.539C130.603 141.657 138.845 140.709 141.698 132.488C129.652 110.67 130.267 75.0027 168.326 56.9159C194.953 46.7975 217.46 53.1215 229.823 62.2913C226.918 65.1892 223.587 66.6423 220.782 67.8657C215.936 69.9795 212.663 71.4074 215.875 78.4174C220.313 87.271 239.016 71.461 239.016 71.461C260.255 98.6541 248.526 138.811 213.973 152.092C187.029 162.21 158.816 156.519 143.283 135.017C130.286 166.005 102.707 160.945 97.6353 136.282L82.7364 75.5716C77.6644 52.1728 48.6658 61.3426 47.5496 92.014C47.6978 101.4 47.4823 109.664 47.2958 116.816C46.6843 140.265 46.3841 151.776 60.2295 151.776C60.2295 151.776 61.1805 151.776 61.1805 152.724C61.1805 153.673 60.2295 153.673 60.2295 153.673C55.7916 152.724 9.82693 153.041 4.43797 153.673ZM168.326 112.567C155.329 82.528 157.548 64.5047 171.813 58.1807C189.565 51.2243 201.293 66.718 216.826 97.3893C231.725 135.017 219.996 146.717 213.973 148.93C201.927 153.673 186.712 155.254 168.326 112.567Z" fill="white"/>
<path fill-rule="evenodd" clip-rule="evenodd" d="M315.096 99.9189C277.69 93.9112 253.281 100.551 251.062 120.156C250.745 141.341 264.693 154.938 283.079 156.519C295.125 158.1 314.462 152.092 321.436 128.377C325.239 145.768 331.262 155.886 342.991 156.519C360.426 156.835 373.106 137.23 372.789 113.199C372.789 113.199 372.789 112.251 371.838 112.251C370.887 112.251 370.887 113.199 370.887 113.199C371.521 124.266 367.083 139.128 360.426 138.812C353.723 138.495 352.501 128.061 344.576 92.014C344.576 92.014 342.04 74.9393 336.968 67.9829C325.556 40.7897 253.281 46.1651 253.281 88.852C253.281 89.8006 253.598 90.1168 253.915 90.1168C254.549 90.1168 254.866 89.8006 255.183 88.5358C255.183 55.0186 302.733 48.6946 309.073 74.3068L315.096 99.9189ZM283.396 104.346C290.687 98.6541 308.756 100.868 315.73 103.397C318.266 116.678 321.119 119.523 318.9 125.531C317.949 138.179 310.975 142.29 298.612 142.29C278.324 141.025 274.203 113.199 283.396 104.346Z" fill="white"/>
<path d="M366.766 153.673C366.766 153.673 365.815 153.673 365.815 152.724C365.815 151.776 366.766 151.776 366.766 151.776C378.178 151.776 378.812 148.93 379.763 135.333L379.446 85.0577C377.861 35.0981 382.933 19.2882 368.985 21.8178C367.717 21.8178 368.034 20.2368 368.034 20.2368C380.714 17.391 398.149 10.7508 410.195 1.43501e-05C410.549 -0.316184 412.414 -0.632384 412.414 1.58101C411.463 7.5888 408.293 28.7742 409.561 79.9985C416.852 45.8489 472.009 38.8925 476.447 78.4175L489.761 131.539C492.931 141.657 501.49 140.709 504.343 132.488C504.343 132.488 507.83 125.531 507.513 113.199C507.513 113.199 507.513 112.251 508.464 112.251C509.415 112.251 509.415 113.199 509.415 113.199C509.415 113.199 510.366 122.369 506.245 134.701C493.565 165.056 466.937 161.894 459.963 136.282C457.11 126.48 444.748 68.6153 442.212 67.9829C436.823 57.2321 411.463 59.4455 409.561 95.8084C409.709 105.195 409.81 109.664 409.624 116.816C409.012 140.265 408.712 151.776 422.558 151.776C422.558 151.776 423.509 151.776 423.509 152.724C423.509 153.673 422.558 153.673 422.558 153.673C418.12 152.724 372.155 153.041 366.766 153.673Z" fill="white"/>
<path d="M221.264 73.9907C220.313 74.3069 220.313 75.5717 221.581 75.2555C223.8 74.6231 245.673 63.8723 253.598 45.8489C257.085 39.5249 263.108 13.9128 238.065 13.9128C223.483 13.9128 216.826 25.9284 218.094 32.8848C219.679 48.3785 234.895 43.9517 240.284 48.6947C241.552 49.9595 241.362 53.598 240.601 55.9673C238.382 64.5047 229.506 70.8287 221.264 73.9907Z" fill="white"/>
</g>
<defs>
<clipPath id="clip0_105_7">
<rect width="511" height="203" fill="white"/>
</clipPath>
</defs>
</svg>
