<svg width="132" height="131" viewBox="0 0 132 131" fill="none" xmlns="http://www.w3.org/2000/svg">
<path d="M3.03241 67.008C1.91429 32.3633 29.8741 3.56241 64.5324 3.00797C99.7363 2.44479 129.168 31.8179 128.032 67.008C126.932 101.107 98.6453 127.553 64.5324 127.008C30.9828 126.472 4.11476 100.544 3.03241 67.008Z" stroke="url(#paint0_linear_5_16)" stroke-width="6"/>
<path d="M67.0241 37.008C83.0324 37.008 88.7794 47.508 89.0157 55.7674C89.1799 61.508 88.4659 63.5838 87.3663 67.7525C84.5324 74.508 84.0324 75.8136 79.6692 80.7799C73.5324 87.765 71.9722 88.5963 65.9245 93.8072C60.5324 98.4532 49.5324 104.008 49.5324 104.008C49.5324 104.008 47.4385 104.778 47.0324 104.008C46.4826 102.966 47.5324 102.008 47.5324 102.008C47.5324 102.008 56.012 96.6121 60.5324 92.508C64.7874 88.6449 66.8277 85.6649 68.0149 81.5911C68.4129 80.2255 68.5602 78.7658 68.1969 77.3905C68.0019 76.6525 67.7049 75.9937 67.2092 75.3159C66.7967 74.7519 66.2232 74.332 65.6171 73.984C63.6272 72.8415 62.9455 72.4654 60.5324 72.008C55.5324 71.008 55.0324 70.508 51.6299 68.7947C46.8922 65.7129 45.0324 63.008 45.0324 56.2885C45.0324 45.008 54.5324 37.008 67.0241 37.008Z" fill="url(#paint1_linear_5_16)"/>
<defs>
<linearGradient id="paint0_linear_5_16" x1="3" y1="65" x2="128" y2="65" gradientUnits="userSpaceOnUse">
<stop stop-color="#1C1464"/>
<stop offset="1" stop-color="#93278F"/>
</linearGradient>
<linearGradient id="paint1_linear_5_16" x1="-0.5" y1="64" x2="132" y2="64" gradientUnits="userSpaceOnUse">
<stop stop-color="#1C1464"/>
<stop offset="1" stop-color="#93278F"/>
</linearGradient>
</defs>
</svg>
